<mxfile host="app.diagrams.net" modified="2022-03-02T21:26:19.615Z" agent="5.0 (Macintosh; Intel Mac OS X 10_15_7) AppleWebKit/537.36 (KHTML, like Gecko) Chrome/98.0.4758.102 Safari/537.36" etag="dXufTdC6J7xDCsyc8SdX" version="16.6.4" type="github" pages="2">
  <diagram id="F5-OUlLzbReeKoo68haT" name="Page-1">
    <mxGraphModel dx="1181" dy="645" grid="1" gridSize="10" guides="1" tooltips="1" connect="1" arrows="1" fold="1" page="1" pageScale="1" pageWidth="850" pageHeight="1100" math="0" shadow="0">
      <root>
        <mxCell id="0" />
        <mxCell id="1" parent="0" />
        <mxCell id="-wiDx8SyCSjooalKV0-v-5" style="edgeStyle=orthogonalEdgeStyle;rounded=0;orthogonalLoop=1;jettySize=auto;html=1;exitX=1;exitY=0.5;exitDx=0;exitDy=0;endArrow=none;endFill=0;" edge="1" parent="1" source="ISntGJ9KxGpIwfvyZYCT-39" target="ISntGJ9KxGpIwfvyZYCT-44">
          <mxGeometry relative="1" as="geometry" />
        </mxCell>
        <mxCell id="ISntGJ9KxGpIwfvyZYCT-39" value="Scout" style="swimlane;fontStyle=0;childLayout=stackLayout;horizontal=1;startSize=26;fillColor=none;horizontalStack=0;resizeParent=1;resizeParentMax=0;resizeLast=0;collapsible=1;marginBottom=0;" vertex="1" parent="1">
          <mxGeometry x="160" y="242" width="160" height="52" as="geometry" />
        </mxCell>
        <mxCell id="ISntGJ9KxGpIwfvyZYCT-40" value="+ name: string" style="text;strokeColor=none;fillColor=none;align=left;verticalAlign=top;spacingLeft=4;spacingRight=4;overflow=hidden;rotatable=0;points=[[0,0.5],[1,0.5]];portConstraint=eastwest;" vertex="1" parent="ISntGJ9KxGpIwfvyZYCT-39">
          <mxGeometry y="26" width="160" height="26" as="geometry" />
        </mxCell>
        <mxCell id="ISntGJ9KxGpIwfvyZYCT-43" value="Meal" style="swimlane;fontStyle=0;childLayout=stackLayout;horizontal=1;startSize=26;fillColor=none;horizontalStack=0;resizeParent=1;resizeParentMax=0;resizeLast=0;collapsible=1;marginBottom=0;" vertex="1" parent="1">
          <mxGeometry x="620" y="229" width="160" height="78" as="geometry" />
        </mxCell>
        <mxCell id="ISntGJ9KxGpIwfvyZYCT-44" value="+typeMeal: string" style="text;strokeColor=none;fillColor=none;align=left;verticalAlign=top;spacingLeft=4;spacingRight=4;overflow=hidden;rotatable=0;points=[[0,0.5],[1,0.5]];portConstraint=eastwest;" vertex="1" parent="ISntGJ9KxGpIwfvyZYCT-43">
          <mxGeometry y="26" width="160" height="26" as="geometry" />
        </mxCell>
        <mxCell id="ISntGJ9KxGpIwfvyZYCT-45" value="+ day: string" style="text;strokeColor=none;fillColor=none;align=left;verticalAlign=top;spacingLeft=4;spacingRight=4;overflow=hidden;rotatable=0;points=[[0,0.5],[1,0.5]];portConstraint=eastwest;" vertex="1" parent="ISntGJ9KxGpIwfvyZYCT-43">
          <mxGeometry y="52" width="160" height="26" as="geometry" />
        </mxCell>
        <mxCell id="ISntGJ9KxGpIwfvyZYCT-58" value="Task" style="swimlane;fontStyle=0;childLayout=stackLayout;horizontal=1;startSize=26;fillColor=none;horizontalStack=0;resizeParent=1;resizeParentMax=0;resizeLast=0;collapsible=1;marginBottom=0;" vertex="1" parent="1">
          <mxGeometry x="400" y="400" width="160" height="52" as="geometry" />
        </mxCell>
        <mxCell id="ISntGJ9KxGpIwfvyZYCT-59" value="+ chore: string" style="text;strokeColor=none;fillColor=none;align=left;verticalAlign=top;spacingLeft=4;spacingRight=4;overflow=hidden;rotatable=0;points=[[0,0.5],[1,0.5]];portConstraint=eastwest;" vertex="1" parent="ISntGJ9KxGpIwfvyZYCT-58">
          <mxGeometry y="26" width="160" height="26" as="geometry" />
        </mxCell>
        <mxCell id="-wiDx8SyCSjooalKV0-v-6" value="1..*" style="text;html=1;align=center;verticalAlign=middle;resizable=0;points=[];autosize=1;strokeColor=none;fillColor=none;" vertex="1" parent="1">
          <mxGeometry x="590" y="251" width="30" height="20" as="geometry" />
        </mxCell>
        <mxCell id="-wiDx8SyCSjooalKV0-v-7" value="1..*" style="text;html=1;align=center;verticalAlign=middle;resizable=0;points=[];autosize=1;strokeColor=none;fillColor=none;" vertex="1" parent="1">
          <mxGeometry x="320" y="271" width="30" height="20" as="geometry" />
        </mxCell>
        <mxCell id="-wiDx8SyCSjooalKV0-v-8" value="" style="endArrow=none;dashed=1;html=1;rounded=0;exitX=0.438;exitY=0;exitDx=0;exitDy=0;exitPerimeter=0;" edge="1" parent="1" source="ISntGJ9KxGpIwfvyZYCT-58">
          <mxGeometry width="50" height="50" relative="1" as="geometry">
            <mxPoint x="420" y="320" as="sourcePoint" />
            <mxPoint x="470" y="270" as="targetPoint" />
          </mxGeometry>
        </mxCell>
      </root>
    </mxGraphModel>
  </diagram>
  <diagram id="mW1-qm0KenO6mOCfqsuo" name="Page-2">
    <mxGraphModel dx="1261" dy="861" grid="1" gridSize="10" guides="1" tooltips="1" connect="1" arrows="1" fold="1" page="1" pageScale="1" pageWidth="850" pageHeight="1100" math="0" shadow="0">
      <root>
        <mxCell id="6r42kMZvUn3mNVEDOe5r-0" />
        <mxCell id="6r42kMZvUn3mNVEDOe5r-1" parent="6r42kMZvUn3mNVEDOe5r-0" />
        <mxCell id="zVGuyxkBeyIJs272_clI-0" value="" style="shape=table;html=1;whiteSpace=wrap;startSize=0;container=1;collapsible=0;childLayout=tableLayout;" vertex="1" parent="6r42kMZvUn3mNVEDOe5r-1">
          <mxGeometry x="280" y="280" width="120" height="40" as="geometry" />
        </mxCell>
        <mxCell id="zVGuyxkBeyIJs272_clI-1" value="" style="shape=tableRow;horizontal=0;startSize=0;swimlaneHead=0;swimlaneBody=0;top=0;left=0;bottom=0;right=0;collapsible=0;dropTarget=0;fillColor=none;points=[[0,0.5],[1,0.5]];portConstraint=eastwest;" vertex="1" parent="zVGuyxkBeyIJs272_clI-0">
          <mxGeometry width="120" height="40" as="geometry" />
        </mxCell>
        <mxCell id="zVGuyxkBeyIJs272_clI-2" value="scout_id" style="shape=partialRectangle;html=1;whiteSpace=wrap;connectable=0;fillColor=none;top=0;left=0;bottom=0;right=0;overflow=hidden;" vertex="1" parent="zVGuyxkBeyIJs272_clI-1">
          <mxGeometry width="60" height="40" as="geometry">
            <mxRectangle width="60" height="40" as="alternateBounds" />
          </mxGeometry>
        </mxCell>
        <mxCell id="zVGuyxkBeyIJs272_clI-3" value="name" style="shape=partialRectangle;html=1;whiteSpace=wrap;connectable=0;fillColor=none;top=0;left=0;bottom=0;right=0;overflow=hidden;" vertex="1" parent="zVGuyxkBeyIJs272_clI-1">
          <mxGeometry x="60" width="60" height="40" as="geometry">
            <mxRectangle width="60" height="40" as="alternateBounds" />
          </mxGeometry>
        </mxCell>
        <mxCell id="HKVqTWaNozb6Rl3w4fx_-0" value="Scouts" style="text;html=1;align=center;verticalAlign=middle;resizable=0;points=[];autosize=1;strokeColor=none;fillColor=none;" vertex="1" parent="6r42kMZvUn3mNVEDOe5r-1">
          <mxGeometry x="280" y="260" width="50" height="20" as="geometry" />
        </mxCell>
        <mxCell id="vW45UrMbjvelXQElezyh-0" value="" style="shape=table;html=1;whiteSpace=wrap;startSize=0;container=1;collapsible=0;childLayout=tableLayout;" vertex="1" parent="6r42kMZvUn3mNVEDOe5r-1">
          <mxGeometry x="480" y="280" width="210" height="40" as="geometry" />
        </mxCell>
        <mxCell id="vW45UrMbjvelXQElezyh-1" value="" style="shape=tableRow;horizontal=0;startSize=0;swimlaneHead=0;swimlaneBody=0;top=0;left=0;bottom=0;right=0;collapsible=0;dropTarget=0;fillColor=none;points=[[0,0.5],[1,0.5]];portConstraint=eastwest;" vertex="1" parent="vW45UrMbjvelXQElezyh-0">
          <mxGeometry width="210" height="40" as="geometry" />
        </mxCell>
        <mxCell id="vW45UrMbjvelXQElezyh-2" value="meal_id" style="shape=partialRectangle;html=1;whiteSpace=wrap;connectable=0;fillColor=none;top=0;left=0;bottom=0;right=0;overflow=hidden;" vertex="1" parent="vW45UrMbjvelXQElezyh-1">
          <mxGeometry width="70" height="40" as="geometry">
            <mxRectangle width="70" height="40" as="alternateBounds" />
          </mxGeometry>
        </mxCell>
        <mxCell id="vW45UrMbjvelXQElezyh-3" value="typeMeal" style="shape=partialRectangle;html=1;whiteSpace=wrap;connectable=0;fillColor=none;top=0;left=0;bottom=0;right=0;overflow=hidden;" vertex="1" parent="vW45UrMbjvelXQElezyh-1">
          <mxGeometry x="70" width="70" height="40" as="geometry">
            <mxRectangle width="70" height="40" as="alternateBounds" />
          </mxGeometry>
        </mxCell>
        <mxCell id="vW45UrMbjvelXQElezyh-4" value="day" style="shape=partialRectangle;html=1;whiteSpace=wrap;connectable=0;fillColor=none;top=0;left=0;bottom=0;right=0;overflow=hidden;" vertex="1" parent="vW45UrMbjvelXQElezyh-1">
          <mxGeometry x="140" width="70" height="40" as="geometry">
            <mxRectangle width="70" height="40" as="alternateBounds" />
          </mxGeometry>
        </mxCell>
        <mxCell id="KqUkMIYGXnzjiuBSk712-0" value="Meals" style="text;html=1;align=center;verticalAlign=middle;resizable=0;points=[];autosize=1;strokeColor=none;fillColor=none;" vertex="1" parent="6r42kMZvUn3mNVEDOe5r-1">
          <mxGeometry x="480" y="260" width="50" height="20" as="geometry" />
        </mxCell>
        <mxCell id="NtnBjtAYKazGp67NOjQB-3" style="edgeStyle=orthogonalEdgeStyle;rounded=0;orthogonalLoop=1;jettySize=auto;html=1;exitX=0.5;exitY=1;exitDx=0;exitDy=0;entryX=0.5;entryY=0;entryDx=0;entryDy=0;endArrow=none;endFill=0;" edge="1" parent="6r42kMZvUn3mNVEDOe5r-1" source="Mo2t7ZAcmu9_pF9MsI1I-0" target="NtnBjtAYKazGp67NOjQB-1">
          <mxGeometry relative="1" as="geometry" />
        </mxCell>
        <mxCell id="Mo2t7ZAcmu9_pF9MsI1I-0" value="PK" style="whiteSpace=wrap;html=1;fillColor=#fff2cc;strokeColor=#d6b656;" vertex="1" parent="6r42kMZvUn3mNVEDOe5r-1">
          <mxGeometry x="280" y="320" width="60" height="40" as="geometry" />
        </mxCell>
        <mxCell id="NtnBjtAYKazGp67NOjQB-4" style="edgeStyle=orthogonalEdgeStyle;rounded=0;orthogonalLoop=1;jettySize=auto;html=1;exitX=0.5;exitY=1;exitDx=0;exitDy=0;entryX=0.5;entryY=0;entryDx=0;entryDy=0;endArrow=none;endFill=0;" edge="1" parent="6r42kMZvUn3mNVEDOe5r-1" source="Mo2t7ZAcmu9_pF9MsI1I-2" target="NtnBjtAYKazGp67NOjQB-2">
          <mxGeometry relative="1" as="geometry" />
        </mxCell>
        <mxCell id="Mo2t7ZAcmu9_pF9MsI1I-2" value="PK" style="whiteSpace=wrap;html=1;fillColor=#fff2cc;strokeColor=#d6b656;" vertex="1" parent="6r42kMZvUn3mNVEDOe5r-1">
          <mxGeometry x="480" y="320" width="70" height="40" as="geometry" />
        </mxCell>
        <mxCell id="Mo2t7ZAcmu9_pF9MsI1I-3" value="" style="shape=table;html=1;whiteSpace=wrap;startSize=0;container=1;collapsible=0;childLayout=tableLayout;" vertex="1" parent="6r42kMZvUn3mNVEDOe5r-1">
          <mxGeometry x="340" y="440" width="180" height="40" as="geometry" />
        </mxCell>
        <mxCell id="Mo2t7ZAcmu9_pF9MsI1I-4" value="" style="shape=tableRow;horizontal=0;startSize=0;swimlaneHead=0;swimlaneBody=0;top=0;left=0;bottom=0;right=0;collapsible=0;dropTarget=0;fillColor=none;points=[[0,0.5],[1,0.5]];portConstraint=eastwest;" vertex="1" parent="Mo2t7ZAcmu9_pF9MsI1I-3">
          <mxGeometry width="180" height="40" as="geometry" />
        </mxCell>
        <mxCell id="Mo2t7ZAcmu9_pF9MsI1I-5" value="scout_id" style="shape=partialRectangle;html=1;whiteSpace=wrap;connectable=0;fillColor=none;top=0;left=0;bottom=0;right=0;overflow=hidden;" vertex="1" parent="Mo2t7ZAcmu9_pF9MsI1I-4">
          <mxGeometry width="60" height="40" as="geometry">
            <mxRectangle width="60" height="40" as="alternateBounds" />
          </mxGeometry>
        </mxCell>
        <mxCell id="Mo2t7ZAcmu9_pF9MsI1I-6" value="meal_id" style="shape=partialRectangle;html=1;whiteSpace=wrap;connectable=0;fillColor=none;top=0;left=0;bottom=0;right=0;overflow=hidden;" vertex="1" parent="Mo2t7ZAcmu9_pF9MsI1I-4">
          <mxGeometry x="60" width="60" height="40" as="geometry">
            <mxRectangle width="60" height="40" as="alternateBounds" />
          </mxGeometry>
        </mxCell>
        <mxCell id="Mo2t7ZAcmu9_pF9MsI1I-7" value="chore" style="shape=partialRectangle;html=1;whiteSpace=wrap;connectable=0;fillColor=none;top=0;left=0;bottom=0;right=0;overflow=hidden;" vertex="1" parent="Mo2t7ZAcmu9_pF9MsI1I-4">
          <mxGeometry x="120" width="60" height="40" as="geometry">
            <mxRectangle width="60" height="40" as="alternateBounds" />
          </mxGeometry>
        </mxCell>
        <mxCell id="qp5ZXJXR2TAadtBpBKw1-4" value="Tasks" style="text;html=1;align=center;verticalAlign=middle;resizable=0;points=[];autosize=1;strokeColor=none;fillColor=none;" vertex="1" parent="6r42kMZvUn3mNVEDOe5r-1">
          <mxGeometry x="290" y="440" width="50" height="20" as="geometry" />
        </mxCell>
        <mxCell id="NtnBjtAYKazGp67NOjQB-1" value="FK" style="whiteSpace=wrap;html=1;fillColor=#dae8fc;strokeColor=#6c8ebf;" vertex="1" parent="6r42kMZvUn3mNVEDOe5r-1">
          <mxGeometry x="340" y="400" width="60" height="40" as="geometry" />
        </mxCell>
        <mxCell id="NtnBjtAYKazGp67NOjQB-2" value="FK" style="whiteSpace=wrap;html=1;fillColor=#dae8fc;strokeColor=#6c8ebf;" vertex="1" parent="6r42kMZvUn3mNVEDOe5r-1">
          <mxGeometry x="400" y="400" width="60" height="40" as="geometry" />
        </mxCell>
        <mxCell id="NtnBjtAYKazGp67NOjQB-5" value="PK" style="whiteSpace=wrap;html=1;fillColor=#fff2cc;strokeColor=#d6b656;" vertex="1" parent="6r42kMZvUn3mNVEDOe5r-1">
          <mxGeometry x="340" y="480" width="120" height="40" as="geometry" />
        </mxCell>
        <mxCell id="mdU8XjXPvT0SgWyq1FBL-0" value="1..*" style="text;html=1;align=center;verticalAlign=middle;resizable=0;points=[];autosize=1;strokeColor=none;fillColor=none;" vertex="1" parent="6r42kMZvUn3mNVEDOe5r-1">
          <mxGeometry x="340" y="320" width="30" height="20" as="geometry" />
        </mxCell>
        <mxCell id="mdU8XjXPvT0SgWyq1FBL-1" value="1..*" style="text;html=1;align=center;verticalAlign=middle;resizable=0;points=[];autosize=1;strokeColor=none;fillColor=none;" vertex="1" parent="6r42kMZvUn3mNVEDOe5r-1">
          <mxGeometry x="550" y="320" width="30" height="20" as="geometry" />
        </mxCell>
        <mxCell id="5mSIhiHDHSiJ-GbBEQm2-0" value="1..*" style="text;html=1;align=center;verticalAlign=middle;resizable=0;points=[];autosize=1;strokeColor=none;fillColor=none;" vertex="1" parent="6r42kMZvUn3mNVEDOe5r-1">
          <mxGeometry x="370" y="380" width="30" height="20" as="geometry" />
        </mxCell>
        <mxCell id="5mSIhiHDHSiJ-GbBEQm2-2" value="1..*" style="text;html=1;align=center;verticalAlign=middle;resizable=0;points=[];autosize=1;strokeColor=none;fillColor=none;" vertex="1" parent="6r42kMZvUn3mNVEDOe5r-1">
          <mxGeometry x="430" y="380" width="30" height="20" as="geometry" />
        </mxCell>
      </root>
    </mxGraphModel>
  </diagram>
</mxfile>
